<?xml version="1.0" encoding="utf-8"?>
<!-- Generator: Adobe Illustrator 16.0.0, SVG Export Plug-In . SVG Version: 6.00 Build 0)  -->
<!DOCTYPE svg PUBLIC "-//W3C//DTD SVG 1.1//EN" "http://www.w3.org/Graphics/SVG/1.1/DTD/svg11.dtd">
<svg version="1.1" id="Layer_1" xmlns="http://www.w3.org/2000/svg" xmlns:xlink="http://www.w3.org/1999/xlink" x="0px" y="0px"
	 width="400px" height="400px" viewBox="0 0 400 400" enable-background="new 0 0 400 400" xml:space="preserve">
<g>
	<g>
		
			<image overflow="visible" opacity="0.2" enable-background="new    " width="368" height="410" xlink:href="ED4E83F6.png"  transform="matrix(1 0 0 1 10 -1)">
		</image>
		<g>
			<path fill="#E57373" d="M311.412,212.303c5.51,47.489-11.014,91.295-47.018,112.079c-53.023,30.616-128.158-0.256-167.818-68.954
				l192.007-110.852c0.041,0.073,0.078,0.145,0.122,0.218l42.54-24.552c-0.046-0.076-0.082-0.148-0.126-0.225
				C275.326,23.379,168.07-19.152,91.56,25.023C15.042,69.198-1.753,183.35,54.041,279.989
				c55.794,96.636,163.05,139.162,239.566,94.987c59.613-34.418,82.963-111.319,63.981-189.32L311.412,212.303z"/>
		</g>
	</g>
	<g>
		<g opacity="0.2">
			<path fill="#4E342E" d="M311.412,211.303c5.51,47.489-11.014,91.295-47.018,112.079c-53.023,30.616-128.158-0.256-167.818-68.954
				l192.007-110.852c0.041,0.073,0.078,0.145,0.122,0.218l42.54-24.552c-0.046-0.076-0.082-0.148-0.126-0.225
				C275.326,22.379,168.07-20.152,91.56,24.023C15.042,68.198-1.753,182.35,54.041,278.989
				c55.794,96.636,163.05,139.162,239.566,94.987c59.613-34.418,82.963-111.319,63.981-189.32L311.412,211.303z"/>
		</g>
		<g>
			<path fill="#E57373" d="M311.412,212.303c5.51,47.489-11.014,91.295-47.018,112.079c-53.023,30.616-128.158-0.256-167.818-68.954
				l192.007-110.852c0.041,0.073,0.078,0.145,0.122,0.218l42.54-24.552c-0.046-0.076-0.082-0.148-0.126-0.225
				C275.326,23.379,168.07-19.152,91.56,25.023C15.042,69.198-1.753,183.35,54.041,279.989
				c55.794,96.636,163.05,139.162,239.566,94.987c59.613-34.418,82.963-111.319,63.981-189.32L311.412,212.303z"/>
		</g>
	</g>
	<g opacity="0.2">
		<path fill="#FFFFFF" d="M311.7,215.68l45.884-26.478c4.093,16.812,6.205,33.565,6.422,49.862
			c0.063-17.403-2.03-35.377-6.422-53.408l-46.177,26.646C311.536,213.436,311.596,214.55,311.7,215.68z"/>
		<path fill="#FFFFFF" d="M264.391,327.93c31.945-18.445,48.516-55.027,48.003-96.213c-0.458,39.73-16.975,74.751-48.003,92.665
			c-52.336,30.218-126.189,0.509-166.234-66.323l-1.585,0.914C136.231,327.67,211.366,358.545,264.391,327.93z"/>
		<path fill="#FFFFFF" d="M91.554,28.568c75.861-43.801,181.924-2.327,238.106,92.583l1.579-0.91
			c-0.046-0.076-0.082-0.148-0.126-0.225C275.32,23.379,168.064-19.152,91.554,25.023c-46.135,26.633-70.52,78.719-70.412,137.053
			C22.012,105.18,46.354,54.662,91.554,28.568z"/>
	</g>
</g>
</svg>
